<svg xmlns="http://www.w3.org/2000/svg" width="512" height="512" viewBox="0 0 492 492"><path d="M109.33 265.2l218.94 218.94c5.07 5.07 11.83 7.86 19.04 7.86s13.96-2.79 19.03-7.86l16.12-16.12a26.95 26.95 0 000-38.06L198.61 246.1 382.67 62.04a26.74 26.74 0 007.86-19.02c0-7.22-2.8-13.97-7.86-19.04L366.54 7.86C361.47 2.79 354.72 0 347.51 0s-13.97 2.8-19.03 7.86L109.33 227a26.76 26.76 0 00-7.85 19.1 26.75 26.75 0 007.85 19.1z" fill="#fff" data-original="#000000" xmlns="http://www.w3.org/2000/svg"/></svg>